<?xml version="1.0" encoding="utf-8"?>
<!-- Generator: Adobe Illustrator 27.9.0, SVG Export Plug-In . SVG Version: 6.00 Build 0)  -->
<svg version="1.1" id="Layer_1" xmlns="http://www.w3.org/2000/svg" xmlns:xlink="http://www.w3.org/1999/xlink" x="0px" y="0px"
	 viewBox="0 0 333.19 102.35" style="enable-background:new 0 0 333.19 102.35;" xml:space="preserve">
<style type="text/css">
	.st0{fill-rule:evenodd;clip-rule:evenodd;fill:#0C5ADB;}
	.st1{fill:#0C5ADB;}
	.st2{fill:#707070;}
</style>
<g>
	<polygon class="st0" points="82.19,18.4 64.94,28.32 64.94,52.21 63.3,39.57 33.53,56.71 33.53,96.16 63.4,80.56 62.82,63.2 
		38.26,73.84 82.19,48.54 	"/>
	<polygon class="st0" points="75.4,14.37 22.24,44.97 28.13,48.35 81.3,17.76 	"/>
	<polygon class="st0" points="61.7,6.38 1.76,40.88 14.71,48.35 74.66,13.83 	"/>
</g>
<g>
	<g>
		<path class="st1" d="M105.28,55.08V13.66h18.56c4.6,0,8.15,1.13,10.64,3.4c2.49,2.27,3.73,5.38,3.73,9.33
			c0,3.92-1.25,7.02-3.76,9.31c-2.51,2.28-6.04,3.43-10.61,3.43h-12.68v15.95H105.28z M111.16,34.17h12.37c2.9,0,5.1-0.7,6.6-2.1
			c1.5-1.4,2.25-3.29,2.25-5.68c0-2.42-0.75-4.32-2.25-5.7c-1.5-1.38-3.7-2.07-6.6-2.07h-12.37V34.17z"/>
		<path class="st1" d="M143.68,55.08V30.33h-2.97V24.4h6.14v5.73H149c0.85-1.87,2.17-3.34,3.96-4.4c1.79-1.06,3.89-1.59,6.32-1.59
			h2.5v4.91h-2.81c-3.07,0-5.44,0.9-7.11,2.71c-1.67,1.81-2.51,4.24-2.51,7.31v16H143.68z"/>
		<path class="st1" d="M177.48,55.69c-3.17,0-5.94-0.66-8.31-1.97s-4.2-3.16-5.5-5.55c-1.3-2.39-1.94-5.2-1.94-8.44
			s0.65-6.05,1.94-8.44c1.3-2.39,3.13-4.23,5.5-5.55c2.37-1.31,5.14-1.97,8.31-1.97c3.27,0,6.08,0.65,8.41,1.94
			c2.33,1.3,4.14,3.14,5.42,5.52c1.28,2.39,1.92,5.22,1.92,8.49c0,3.24-0.64,6.06-1.92,8.46c-1.28,2.4-3.09,4.25-5.45,5.55
			C183.51,55.05,180.72,55.69,177.48,55.69z M177.48,50.68c3.17,0,5.63-0.96,7.39-2.89c1.75-1.92,2.63-4.61,2.63-8.05
			c0-3.48-0.88-6.17-2.63-8.08c-1.76-1.91-4.22-2.86-7.39-2.86c-3.14,0-5.59,0.96-7.36,2.89c-1.77,1.93-2.66,4.61-2.66,8.05
			s0.89,6.13,2.66,8.05C171.89,49.72,174.34,50.68,177.48,50.68z"/>
		<path class="st1" d="M191.64,67.35v-4.4h6.49V24.4h5.57v37.79c0,1.74-0.48,3.03-1.43,3.89c-0.96,0.85-2.27,1.28-3.94,1.28H191.64z
			 M200.9,20.21c-0.96,0-1.77-0.34-2.45-1.02c-0.68-0.68-1.02-1.5-1.02-2.45c0-0.96,0.34-1.77,1.02-2.45
			c0.68-0.68,1.5-1.02,2.45-1.02c0.95,0,1.77,0.34,2.45,1.02c0.68,0.68,1.02,1.5,1.02,2.45c0,0.95-0.34,1.77-1.02,2.45
			C202.67,19.87,201.85,20.21,200.9,20.21z"/>
		<path class="st1" d="M223.55,55.69c-3.21,0-5.98-0.66-8.33-1.97c-2.35-1.31-4.17-3.18-5.45-5.6c-1.28-2.42-1.92-5.25-1.92-8.49
			s0.64-6.04,1.92-8.41c1.28-2.37,3.07-4.2,5.39-5.5c2.32-1.3,5.03-1.94,8.13-1.94c2.97,0,5.53,0.6,7.7,1.79
			c2.16,1.19,3.84,2.88,5.04,5.06c1.19,2.18,1.79,4.77,1.79,7.77v2.3h-24.44c0.17,3.2,1.15,5.7,2.94,7.49
			c1.79,1.79,4.18,2.68,7.18,2.68c2.08,0,3.84-0.43,5.27-1.3c1.43-0.87,2.42-2.16,2.97-3.86h5.83c-0.75,3.17-2.36,5.62-4.83,7.36
			C230.26,54.82,227.2,55.69,223.55,55.69z M213.58,36.52h18.72c-0.27-2.52-1.2-4.48-2.79-5.88c-1.59-1.4-3.67-2.1-6.26-2.1
			c-2.56,0-4.69,0.7-6.39,2.1C215.15,32.04,214.06,34,213.58,36.52z"/>
		<path class="st1" d="M255.92,55.69c-3.1,0-5.81-0.66-8.13-1.97c-2.32-1.31-4.12-3.16-5.39-5.55c-1.28-2.39-1.92-5.2-1.92-8.44
			s0.63-6.05,1.89-8.44c1.26-2.39,3.05-4.23,5.37-5.55c2.32-1.31,5.04-1.97,8.18-1.97c3.75,0,6.88,0.93,9.38,2.79
			c2.5,1.86,4.15,4.52,4.93,8h-5.78c-0.58-1.98-1.58-3.43-2.99-4.37c-1.42-0.94-3.27-1.41-5.55-1.41c-3.03,0-5.41,0.95-7.13,2.86
			c-1.72,1.91-2.58,4.6-2.58,8.08c0,3.44,0.86,6.13,2.58,8.05c1.72,1.93,4.1,2.89,7.13,2.89c4.74,0,7.65-2.1,8.74-6.29h5.78
			c-0.75,3.65-2.39,6.44-4.91,8.39C263.01,54.72,259.8,55.69,255.92,55.69z"/>
		<path class="st1" d="M280.97,55.08c-1.64,0-2.91-0.42-3.81-1.25c-0.9-0.84-1.36-2.09-1.36-3.76V28.8h-5.73v-4.4h5.78v-9.2h5.62
			v9.2h8.03v4.4h-7.98v21.78h8.79v4.5H280.97z"/>
		<path class="st1" d="M294.01,55.08v-3.89L312.52,29h-17.59v-4.6h24.44v3.89l-18.51,22.19h18.82v4.6H294.01z"/>
	</g>
	<g>
		<path class="st2" d="M103.41,84.41l0.91-0.54c0.64,1.17,1.38,1.76,2.21,1.76c0.36,0,0.69-0.08,1.01-0.25
			c0.31-0.17,0.55-0.39,0.72-0.67c0.16-0.28,0.25-0.58,0.25-0.89c0-0.36-0.12-0.71-0.36-1.05c-0.33-0.47-0.94-1.04-1.83-1.71
			c-0.89-0.67-1.44-1.16-1.66-1.46c-0.38-0.5-0.57-1.05-0.57-1.63c0-0.46,0.11-0.89,0.33-1.27c0.22-0.38,0.54-0.68,0.94-0.9
			c0.4-0.22,0.84-0.33,1.32-0.33c0.5,0,0.97,0.12,1.41,0.37c0.44,0.25,0.9,0.71,1.39,1.38l-0.87,0.66c-0.4-0.53-0.74-0.88-1.03-1.05
			c-0.28-0.17-0.59-0.25-0.92-0.25c-0.43,0-0.78,0.13-1.06,0.39c-0.27,0.26-0.41,0.58-0.41,0.97c0,0.23,0.05,0.46,0.15,0.67
			c0.1,0.22,0.27,0.46,0.53,0.71c0.14,0.14,0.6,0.49,1.38,1.07c0.92,0.68,1.56,1.29,1.9,1.82c0.34,0.53,0.51,1.07,0.51,1.6
			c0,0.77-0.29,1.44-0.88,2.01c-0.59,0.57-1.3,0.86-2.14,0.86c-0.65,0-1.23-0.17-1.76-0.52S103.85,85.22,103.41,84.41z"/>
		<path class="st2" d="M118.44,78.31c1.22,0,2.22,0.44,3.02,1.32c0.73,0.8,1.09,1.75,1.09,2.85c0,1.1-0.38,2.07-1.15,2.89
			s-1.75,1.24-2.96,1.24c-1.21,0-2.2-0.41-2.97-1.24s-1.15-1.79-1.15-2.89c0-1.09,0.36-2.04,1.09-2.84
			C116.21,78.75,117.22,78.31,118.44,78.31z M118.44,79.3c-0.84,0-1.57,0.31-2.18,0.93c-0.61,0.62-0.91,1.38-0.91,2.26
			c0,0.57,0.14,1.1,0.41,1.6c0.28,0.49,0.65,0.87,1.12,1.14c0.47,0.27,0.99,0.4,1.55,0.4c0.56,0,1.08-0.13,1.55-0.4
			c0.47-0.27,0.84-0.65,1.12-1.14c0.28-0.49,0.41-1.02,0.41-1.6c0-0.88-0.3-1.64-0.91-2.26C120,79.61,119.28,79.3,118.44,79.3z"/>
		<path class="st2" d="M127.25,75.47h1.01V86.4h-1.01V75.47z"/>
		<path class="st2" d="M133.21,78.51h1.02v3.68c0,0.9,0.05,1.52,0.15,1.86c0.14,0.48,0.42,0.87,0.83,1.15
			c0.41,0.28,0.9,0.42,1.46,0.42c0.57,0,1.05-0.14,1.44-0.41c0.39-0.27,0.67-0.63,0.82-1.08c0.1-0.3,0.15-0.95,0.15-1.94v-3.68h1.04
			v3.87c0,1.09-0.13,1.91-0.38,2.46s-0.64,0.98-1.15,1.29c-0.51,0.31-1.15,0.47-1.92,0.47c-0.77,0-1.41-0.15-1.92-0.47
			c-0.51-0.31-0.9-0.75-1.15-1.3c-0.25-0.56-0.38-1.4-0.38-2.52V78.51z"/>
		<path class="st2" d="M146.22,75.58h1.01v2.93h1.61v0.88h-1.61v7.01h-1.01v-7.01h-1.39v-0.88h1.39V75.58z"/>
		<path class="st2" d="M153.69,75.26c0.23,0,0.43,0.08,0.59,0.25c0.16,0.16,0.24,0.36,0.24,0.59c0,0.23-0.08,0.42-0.24,0.59
			c-0.16,0.16-0.36,0.25-0.59,0.25c-0.23,0-0.42-0.08-0.58-0.25c-0.16-0.16-0.24-0.36-0.24-0.59c0-0.23,0.08-0.43,0.24-0.59
			C153.27,75.35,153.46,75.26,153.69,75.26z M153.19,78.51h1.01v7.89h-1.01V78.51z"/>
		<path class="st2" d="M163.01,78.31c1.22,0,2.22,0.44,3.02,1.32c0.73,0.8,1.09,1.75,1.09,2.85c0,1.1-0.38,2.07-1.15,2.89
			c-0.77,0.82-1.75,1.24-2.96,1.24c-1.21,0-2.2-0.41-2.97-1.24c-0.77-0.82-1.15-1.79-1.15-2.89c0-1.09,0.36-2.04,1.09-2.84
			C160.78,78.75,161.79,78.31,163.01,78.31z M163.01,79.3c-0.84,0-1.57,0.31-2.18,0.93c-0.61,0.62-0.91,1.38-0.91,2.26
			c0,0.57,0.14,1.1,0.41,1.6c0.28,0.49,0.65,0.87,1.12,1.14c0.47,0.27,0.99,0.4,1.55,0.4c0.56,0,1.08-0.13,1.55-0.4
			c0.47-0.27,0.84-0.65,1.12-1.14c0.28-0.49,0.41-1.02,0.41-1.6c0-0.88-0.3-1.64-0.91-2.26S163.85,79.3,163.01,79.3z"/>
		<path class="st2" d="M171.97,78.51h1.02v1.41c0.4-0.54,0.85-0.95,1.35-1.22c0.49-0.27,1.03-0.4,1.61-0.4
			c0.59,0,1.11,0.15,1.57,0.45c0.46,0.3,0.79,0.7,1.01,1.21c0.22,0.51,0.33,1.3,0.33,2.37v4.06h-1.01v-3.76
			c0-0.91-0.04-1.51-0.11-1.82c-0.12-0.52-0.34-0.92-0.68-1.18c-0.33-0.26-0.77-0.39-1.31-0.39c-0.61,0-1.16,0.2-1.65,0.61
			c-0.49,0.41-0.81,0.91-0.96,1.51c-0.1,0.39-0.14,1.11-0.14,2.15v2.89h-1.02V78.51z"/>
		<path class="st2" d="M187.96,79.37l-0.65,0.67c-0.54-0.53-1.07-0.79-1.59-0.79c-0.33,0-0.61,0.11-0.85,0.33
			c-0.23,0.22-0.35,0.47-0.35,0.76c0,0.26,0.1,0.5,0.29,0.73c0.19,0.24,0.6,0.51,1.22,0.83c0.75,0.39,1.27,0.77,1.54,1.13
			c0.27,0.37,0.4,0.78,0.4,1.24c0,0.65-0.23,1.2-0.68,1.65c-0.45,0.45-1.02,0.67-1.71,0.67c-0.45,0-0.89-0.1-1.3-0.3
			c-0.41-0.2-0.76-0.47-1.03-0.82l0.64-0.73c0.52,0.58,1.07,0.88,1.65,0.88c0.41,0,0.75-0.13,1.04-0.39
			c0.29-0.26,0.43-0.57,0.43-0.92c0-0.29-0.1-0.55-0.28-0.78c-0.19-0.22-0.62-0.5-1.28-0.84c-0.71-0.37-1.2-0.73-1.45-1.09
			c-0.26-0.36-0.39-0.77-0.39-1.23c0-0.6,0.2-1.1,0.61-1.49c0.41-0.4,0.93-0.59,1.55-0.59C186.5,78.31,187.23,78.66,187.96,79.37z"
			/>
		<path class="st2" d="M200.01,75.73h2.1c0.84,0,1.5,0.1,1.95,0.3c0.45,0.2,0.81,0.51,1.08,0.92c0.26,0.42,0.4,0.88,0.4,1.39
			c0,0.47-0.12,0.91-0.35,1.29c-0.23,0.39-0.57,0.71-1.02,0.95c0.55,0.19,0.98,0.41,1.28,0.66c0.3,0.25,0.53,0.56,0.7,0.92
			c0.17,0.36,0.25,0.75,0.25,1.17c0,0.85-0.31,1.58-0.94,2.17c-0.63,0.59-1.47,0.89-2.52,0.89h-2.93V75.73z M201.05,76.78v3.41h0.61
			c0.74,0,1.28-0.07,1.64-0.21c0.35-0.14,0.62-0.36,0.83-0.65c0.2-0.3,0.31-0.63,0.31-0.99c0-0.49-0.17-0.87-0.51-1.15
			c-0.34-0.28-0.89-0.42-1.63-0.42H201.05z M201.05,81.27v4.09h1.32c0.78,0,1.35-0.08,1.71-0.23c0.36-0.15,0.65-0.39,0.88-0.71
			c0.22-0.32,0.33-0.67,0.33-1.05c0-0.47-0.15-0.89-0.46-1.24c-0.31-0.35-0.74-0.59-1.28-0.72c-0.36-0.09-0.99-0.13-1.9-0.13H201.05
			z"/>
		<path class="st2" d="M217.95,83.78l0.85,0.45c-0.28,0.55-0.61,0.99-0.97,1.33c-0.37,0.34-0.78,0.6-1.24,0.77
			c-0.46,0.18-0.98,0.26-1.56,0.26c-1.29,0-2.29-0.42-3.02-1.26c-0.73-0.84-1.09-1.8-1.09-2.86c0-1,0.31-1.89,0.92-2.68
			c0.78-0.99,1.82-1.49,3.13-1.49c1.34,0,2.42,0.51,3.22,1.53c0.57,0.72,0.86,1.62,0.87,2.7h-7.1c0.02,0.92,0.31,1.67,0.88,2.25
			c0.57,0.59,1.27,0.88,2.1,0.88c0.4,0,0.79-0.07,1.17-0.21c0.38-0.14,0.7-0.32,0.97-0.56C217.35,84.67,217.64,84.3,217.95,83.78z
			 M217.95,81.66c-0.14-0.54-0.33-0.97-0.59-1.3c-0.26-0.32-0.6-0.58-1.03-0.78c-0.42-0.2-0.87-0.3-1.34-0.3
			c-0.77,0-1.44,0.25-2,0.75c-0.41,0.36-0.71,0.91-0.92,1.63H217.95z"/>
		<path class="st2" d="M223.08,78.51h1.07l2.71,6.07l2.63-6.07h1.08l-4.7,10.77h-1.07l1.52-3.48L223.08,78.51z"/>
		<path class="st2" d="M238.59,78.31c1.22,0,2.22,0.44,3.02,1.32c0.73,0.8,1.09,1.75,1.09,2.85c0,1.1-0.38,2.07-1.15,2.89
			c-0.77,0.82-1.75,1.24-2.96,1.24c-1.21,0-2.2-0.41-2.97-1.24c-0.77-0.82-1.15-1.79-1.15-2.89c0-1.09,0.36-2.04,1.09-2.84
			C236.36,78.75,237.37,78.31,238.59,78.31z M238.59,79.3c-0.84,0-1.57,0.31-2.18,0.93c-0.61,0.62-0.91,1.38-0.91,2.26
			c0,0.57,0.14,1.1,0.41,1.6c0.28,0.49,0.65,0.87,1.12,1.14c0.47,0.27,0.99,0.4,1.55,0.4s1.08-0.13,1.55-0.4
			c0.47-0.27,0.84-0.65,1.12-1.14c0.28-0.49,0.41-1.02,0.41-1.6c0-0.88-0.3-1.64-0.91-2.26S239.43,79.3,238.59,79.3z"/>
		<path class="st2" d="M247.55,78.51h1.02v1.41c0.4-0.54,0.85-0.95,1.35-1.22c0.49-0.27,1.03-0.4,1.61-0.4
			c0.59,0,1.11,0.15,1.57,0.45c0.46,0.3,0.79,0.7,1.01,1.21c0.22,0.51,0.33,1.3,0.33,2.37v4.06h-1.01v-3.76
			c0-0.91-0.04-1.51-0.11-1.82c-0.12-0.52-0.34-0.92-0.68-1.18c-0.33-0.26-0.77-0.39-1.31-0.39c-0.61,0-1.16,0.2-1.65,0.61
			c-0.49,0.41-0.81,0.91-0.96,1.51c-0.1,0.39-0.14,1.11-0.14,2.15v2.89h-1.02V78.51z"/>
		<path class="st2" d="M267.45,75.47V86.4h-1v-1.36c-0.42,0.52-0.9,0.91-1.43,1.17c-0.53,0.26-1.11,0.39-1.74,0.39
			c-1.12,0-2.07-0.4-2.86-1.21c-0.79-0.81-1.18-1.79-1.18-2.95c0-1.14,0.4-2.11,1.2-2.91c0.8-0.81,1.76-1.21,2.88-1.21
			c0.65,0,1.23,0.14,1.76,0.41c0.52,0.28,0.98,0.69,1.38,1.24v-4.49H267.45z M263.39,79.29c-0.56,0-1.09,0.14-1.56,0.42
			c-0.48,0.28-0.86,0.67-1.14,1.17c-0.28,0.5-0.42,1.03-0.42,1.59c0,0.56,0.14,1.09,0.43,1.59c0.29,0.51,0.67,0.9,1.15,1.18
			c0.48,0.28,1,0.42,1.55,0.42c0.56,0,1.08-0.14,1.58-0.42c0.5-0.28,0.88-0.66,1.15-1.14c0.27-0.48,0.4-1.02,0.4-1.61
			c0-0.91-0.3-1.68-0.9-2.29C265.01,79.59,264.27,79.29,263.39,79.29z"/>
		<path class="st2" d="M279.96,75.73h1.07v9.64h4.1v1.03h-5.17V75.73z"/>
		<path class="st2" d="M289.97,75.26c0.23,0,0.43,0.08,0.59,0.25c0.16,0.16,0.24,0.36,0.24,0.59c0,0.23-0.08,0.42-0.24,0.59
			c-0.16,0.16-0.36,0.25-0.59,0.25c-0.23,0-0.42-0.08-0.58-0.25c-0.16-0.16-0.24-0.36-0.24-0.59c0-0.23,0.08-0.43,0.24-0.59
			C289.55,75.35,289.75,75.26,289.97,75.26z M289.47,78.51h1.01v7.89h-1.01V78.51z"/>
		<path class="st2" d="M295.56,78.51h1.01v1.36c0.35-0.5,0.72-0.87,1.09-1.1c0.51-0.31,1.05-0.46,1.62-0.46
			c0.38,0,0.75,0.07,1.09,0.22c0.34,0.15,0.62,0.35,0.84,0.6c0.22,0.25,0.41,0.61,0.57,1.07c0.34-0.62,0.76-1.09,1.27-1.41
			s1.05-0.48,1.64-0.48c0.54,0,1.02,0.14,1.44,0.41c0.42,0.28,0.73,0.66,0.93,1.15c0.2,0.49,0.3,1.23,0.3,2.22v4.31h-1.04v-4.31
			c0-0.84-0.06-1.43-0.18-1.74c-0.12-0.32-0.33-0.57-0.62-0.76c-0.29-0.19-0.64-0.29-1.04-0.29c-0.49,0-0.94,0.14-1.35,0.44
			c-0.41,0.29-0.7,0.68-0.89,1.16c-0.19,0.48-0.28,1.29-0.28,2.42v3.09h-1.01v-4.04c0-0.95-0.06-1.6-0.18-1.94
			c-0.12-0.34-0.33-0.61-0.62-0.82c-0.3-0.21-0.65-0.31-1.05-0.31c-0.47,0-0.91,0.14-1.32,0.42c-0.41,0.28-0.71,0.66-0.91,1.14
			c-0.2,0.48-0.29,1.21-0.29,2.2v3.34h-1.01V78.51z"/>
		<path class="st2" d="M312.81,75.26c0.23,0,0.43,0.08,0.59,0.25c0.16,0.16,0.24,0.36,0.24,0.59c0,0.23-0.08,0.42-0.24,0.59
			c-0.16,0.16-0.36,0.25-0.59,0.25c-0.23,0-0.42-0.08-0.58-0.25c-0.16-0.16-0.24-0.36-0.24-0.59c0-0.23,0.08-0.43,0.24-0.59
			C312.39,75.35,312.59,75.26,312.81,75.26z M312.31,78.51h1.01v7.89h-1.01V78.51z"/>
		<path class="st2" d="M319.29,75.58h1.01v2.93h1.61v0.88h-1.61v7.01h-1.01v-7.01h-1.39v-0.88h1.39V75.58z"/>
		<path class="st2" d="M330.37,79.37l-0.65,0.67c-0.54-0.53-1.07-0.79-1.59-0.79c-0.33,0-0.61,0.11-0.85,0.33
			c-0.23,0.22-0.35,0.47-0.35,0.76c0,0.26,0.1,0.5,0.29,0.73c0.19,0.24,0.6,0.51,1.22,0.83c0.75,0.39,1.27,0.77,1.54,1.13
			c0.27,0.37,0.4,0.78,0.4,1.24c0,0.65-0.23,1.2-0.68,1.65c-0.45,0.45-1.02,0.67-1.71,0.67c-0.45,0-0.89-0.1-1.3-0.3
			c-0.41-0.2-0.76-0.47-1.03-0.82l0.64-0.73c0.52,0.58,1.07,0.88,1.65,0.88c0.41,0,0.75-0.13,1.04-0.39
			c0.29-0.26,0.43-0.57,0.43-0.92c0-0.29-0.1-0.55-0.28-0.78c-0.19-0.22-0.62-0.5-1.28-0.84c-0.71-0.37-1.2-0.73-1.45-1.09
			c-0.26-0.36-0.39-0.77-0.39-1.23c0-0.6,0.2-1.1,0.61-1.49c0.41-0.4,0.93-0.59,1.55-0.59C328.9,78.31,329.63,78.66,330.37,79.37z"
			/>
	</g>
	<g>
		<path class="st1" d="M325.74,13.25c-2.91,0-5.28,2.37-5.28,5.28s2.37,5.28,5.28,5.28c2.91,0,5.28-2.37,5.28-5.28
			S328.66,13.25,325.74,13.25z M325.74,23.16c-2.55,0-4.63-2.08-4.63-4.63s2.08-4.63,4.63-4.63c2.55,0,4.63,2.08,4.63,4.63
			S328.3,23.16,325.74,23.16z"/>
		<polygon class="st1" points="322.67,17.76 323.63,17.76 323.63,19.83 324.21,19.83 324.21,17.76 325.18,17.76 325.18,17.23 
			322.67,17.23 		"/>
		<polygon class="st1" points="327.44,18.51 327.2,19.12 327.16,19.12 326.92,18.51 326.31,17.23 325.52,17.23 325.52,19.83 
			326.1,19.83 326.1,18.51 326.08,18.1 326.12,18.1 326.27,18.51 326.82,19.68 327.52,19.68 328.07,18.51 328.22,18.1 328.26,18.1 
			328.24,18.51 328.24,19.83 328.82,19.83 328.82,17.23 328.03,17.23 		"/>
	</g>
</g>
</svg>
