<svg xmlns="http://www.w3.org/2000/svg" xmlns:xlink="http://www.w3.org/1999/xlink" width="146.963" height="39" viewBox="0 0 146.963 39">
  <defs>
    <clipPath id="clip-path">
      <path id="Clip_8" data-name="Clip 8" d="M27.22,28.94a1.472,1.472,0,0,1-1.452-1.2H22.531a1.477,1.477,0,0,1-2.929-.265,1.446,1.446,0,0,1,.59-1.165l-1.968-3.892a1.411,1.411,0,0,1-.406.064,1.476,1.476,0,0,1-1.478-1.468,1.449,1.449,0,0,1,.585-1.16l-2.075-4.1a1.427,1.427,0,0,1-.425.071H14.42a1.439,1.439,0,0,1-.491-.089l-2.019,4.1a1.444,1.444,0,0,1,.609,1.181,1.473,1.473,0,0,1-1.477,1.465,1.523,1.523,0,0,1-.4-.062L8.734,26.3a1.446,1.446,0,0,1,.6,1.174,1.477,1.477,0,0,1-2.929.265H2.89A1.478,1.478,0,0,1,0,27.8v-.656a1.467,1.467,0,0,1,1.44-1.137,1.692,1.692,0,0,1,.38.054l1.924-3.875a1.452,1.452,0,0,1-.17-2.2,1.476,1.476,0,0,1,1.051-.434,1.509,1.509,0,0,1,.4.059l2.031-4.085a1.453,1.453,0,0,1-.17-2.2,1.475,1.475,0,0,1,1.05-.434h.007a1.573,1.573,0,0,1,.39.059l1.947-3.917a1.442,1.442,0,0,1-.6-1.17,1.457,1.457,0,0,1,1.878-1.4l1.9-3.817a1.455,1.455,0,0,1-.6-1.175A1.48,1.48,0,0,1,15.378.434a1.455,1.455,0,0,1-.172,2.207l1.9,3.818a1.59,1.59,0,0,1,.4-.062,1.473,1.473,0,0,1,1.477,1.465,1.442,1.442,0,0,1-.6,1.172l1.946,3.917a1.572,1.572,0,0,1,.4-.06A1.474,1.474,0,0,1,22.2,14.355a1.447,1.447,0,0,1-.6,1.172l2.03,4.085a1.321,1.321,0,0,1,.4-.059,1.472,1.472,0,0,1,1.477,1.463,1.449,1.449,0,0,1-.6,1.172l1.924,3.875a1.4,1.4,0,0,1,.38-.054,1.466,1.466,0,1,1,0,2.931Zm-3.541-6.5-1.756,3.835a1.447,1.447,0,0,1,.607.939h3.239a1.45,1.45,0,0,1,.588-.922l-1.92-3.866a1.412,1.412,0,0,1-.4.061A1.442,1.442,0,0,1,23.679,22.436ZM4.222,22.42,2.3,26.287a1.462,1.462,0,0,1,.589.922H6.408a1.453,1.453,0,0,1,.57-.9L5.029,22.42a1.328,1.328,0,0,1-.405.062H4.611A1.4,1.4,0,0,1,4.222,22.42Zm18.364-1.136-3.318,0a1.462,1.462,0,0,1-.566.9l1.968,3.888a1.384,1.384,0,0,1,.41-.064,1.568,1.568,0,0,1,.356.046l1.757-3.836A1.463,1.463,0,0,1,22.586,21.284Zm-16.512,0a1.447,1.447,0,0,1-.567.906L7.454,26.07a1.4,1.4,0,0,1,.406-.061,1.491,1.491,0,0,1,.4.059l1.906-3.881a1.457,1.457,0,0,1-.569-.907H6.074Zm14.321-5.5L18.643,19.8a1.475,1.475,0,0,1,.627.961l3.315,0a1.455,1.455,0,0,1,.573-.912l-2.03-4.085a1.5,1.5,0,0,1-.4.062A1.364,1.364,0,0,1,20.395,15.78ZM7.531,15.759h0L5.5,19.844a1.462,1.462,0,0,1,.572.911H9.593a1.448,1.448,0,0,1,.594-.927L8.3,15.77a1.442,1.442,0,0,1-.366.051,1.523,1.523,0,0,1-.4-.062ZM19.274,14.62l-3.4,0a1.457,1.457,0,0,1-.547.886l2.08,4.109a1.483,1.483,0,0,1,.415-.066,1.444,1.444,0,0,1,.336.04l1.75-4.018A1.451,1.451,0,0,1,19.274,14.62Zm-8.231,4.933a1.4,1.4,0,0,1,.387.058l2.037-4.144a1.459,1.459,0,0,1-.5-.845H9.385a1.471,1.471,0,0,1-.6.932L10.67,19.6A1.484,1.484,0,0,1,11.043,19.552ZM10.755,9.267,8.812,13.181a1.459,1.459,0,0,1,.573.91h3.584a1.443,1.443,0,0,1,.58-.914l-1.98-3.914a1.465,1.465,0,0,1-.413.064A1.426,1.426,0,0,1,10.755,9.267Zm6.352,0h0l-1.894,3.854a1.46,1.46,0,0,1,.658.968h3.4a1.447,1.447,0,0,1,.573-.91L17.9,9.267a1.477,1.477,0,0,1-.4.061,1.535,1.535,0,0,1-.4-.059Zm-4.5-1.143a1.458,1.458,0,0,1-.562.9l1.984,3.92a1.412,1.412,0,0,1,.392-.059,1.483,1.483,0,0,1,.3.03l1.909-3.881a1.459,1.459,0,0,1-.575-.913Zm1.327-5.255-1.9,3.819a1.462,1.462,0,0,1,.571.908h3.445a1.455,1.455,0,0,1,.572-.908l-1.9-3.819a1.507,1.507,0,0,1-.4.06A1.412,1.412,0,0,1,13.934,2.871Z" transform="translate(0.037 0.605)" fill="none"/>
    </clipPath>
    <linearGradient id="linear-gradient" y1="0.5" x2="0.197" y2="0.5" gradientUnits="objectBoundingBox">
      <stop offset="0" stop-color="#70b845"/>
      <stop offset="1" stop-color="#39a2cf"/>
    </linearGradient>
  </defs>
  <g id="Logo_white-bg" transform="translate(-0.037)">
    <path id="Fill_1" data-name="Fill 1" d="M2.741,13H0L5.827,0H8.259L14,13H11.194l-.512-1.191v.057L7,9.636,3.249,11.859,2.741,13Zm4.19-5.913h0l2.3,1.366L7.01,3.495l-2.2,4.874L6.93,7.088Z" transform="translate(48 13)" fill="#1a1919"/>
    <path id="Fill_2" data-name="Fill 2" d="M9.387,8.617,2.41,0H0V13H2.613V4.384L9.589,13H12V0H9.387V8.617" transform="translate(69 13)" fill="#1a1919"/>
    <path id="Fill_3" data-name="Fill 3" d="M2.537,0H0V13H10V10.475H2.537V0" transform="translate(91 13)" fill="#1a1919"/>
    <path id="Fill_4" data-name="Fill 4" d="M6.95,4.944,3.221,0H0L5.586,7.47V13H8.247V7.473L14,0H10.645L6.95,4.944" transform="translate(106 13)" fill="#1a1919"/>
    <path id="Fill_5" data-name="Fill 5" d="M4.24,10.475l7.738-8.837L11.079,0H.783V2.526H7.7L0,11.336.809,13H12V10.475H4.24" transform="translate(124 13)" fill="#1a1919"/>
    <path id="Fill_6" data-name="Fill 6" d="M0,39H1V0H0Z" transform="translate(38)" fill="#1a1919"/>
    <g id="Group_9" data-name="Group 9" transform="translate(0 5)">
      <path id="Clip_8-2" data-name="Clip 8" d="M27.22,28.94a1.472,1.472,0,0,1-1.452-1.2H22.531a1.477,1.477,0,0,1-2.929-.265,1.446,1.446,0,0,1,.59-1.165l-1.968-3.892a1.411,1.411,0,0,1-.406.064,1.476,1.476,0,0,1-1.478-1.468,1.449,1.449,0,0,1,.585-1.16l-2.075-4.1a1.427,1.427,0,0,1-.425.071H14.42a1.439,1.439,0,0,1-.491-.089l-2.019,4.1a1.444,1.444,0,0,1,.609,1.181,1.473,1.473,0,0,1-1.477,1.465,1.523,1.523,0,0,1-.4-.062L8.734,26.3a1.446,1.446,0,0,1,.6,1.174,1.477,1.477,0,0,1-2.929.265H2.89A1.478,1.478,0,0,1,0,27.8v-.656a1.467,1.467,0,0,1,1.44-1.137,1.692,1.692,0,0,1,.38.054l1.924-3.875a1.452,1.452,0,0,1-.17-2.2,1.476,1.476,0,0,1,1.051-.434,1.509,1.509,0,0,1,.4.059l2.031-4.085a1.453,1.453,0,0,1-.17-2.2,1.475,1.475,0,0,1,1.05-.434h.007a1.573,1.573,0,0,1,.39.059l1.947-3.917a1.442,1.442,0,0,1-.6-1.17,1.457,1.457,0,0,1,1.878-1.4l1.9-3.817a1.455,1.455,0,0,1-.6-1.175A1.48,1.48,0,0,1,15.378.434a1.455,1.455,0,0,1-.172,2.207l1.9,3.818a1.59,1.59,0,0,1,.4-.062,1.473,1.473,0,0,1,1.477,1.465,1.442,1.442,0,0,1-.6,1.172l1.946,3.917a1.572,1.572,0,0,1,.4-.06A1.474,1.474,0,0,1,22.2,14.355a1.447,1.447,0,0,1-.6,1.172l2.03,4.085a1.321,1.321,0,0,1,.4-.059,1.472,1.472,0,0,1,1.477,1.463,1.449,1.449,0,0,1-.6,1.172l1.924,3.875a1.4,1.4,0,0,1,.38-.054,1.466,1.466,0,1,1,0,2.931Zm-3.541-6.5-1.756,3.835a1.447,1.447,0,0,1,.607.939h3.239a1.45,1.45,0,0,1,.588-.922l-1.92-3.866a1.412,1.412,0,0,1-.4.061A1.442,1.442,0,0,1,23.679,22.436ZM4.222,22.42,2.3,26.287a1.462,1.462,0,0,1,.589.922H6.408a1.453,1.453,0,0,1,.57-.9L5.029,22.42a1.328,1.328,0,0,1-.405.062H4.611A1.4,1.4,0,0,1,4.222,22.42Zm18.364-1.136-3.318,0a1.462,1.462,0,0,1-.566.9l1.968,3.888a1.384,1.384,0,0,1,.41-.064,1.568,1.568,0,0,1,.356.046l1.757-3.836A1.463,1.463,0,0,1,22.586,21.284Zm-16.512,0a1.447,1.447,0,0,1-.567.906L7.454,26.07a1.4,1.4,0,0,1,.406-.061,1.491,1.491,0,0,1,.4.059l1.906-3.881a1.457,1.457,0,0,1-.569-.907H6.074Zm14.321-5.5L18.643,19.8a1.475,1.475,0,0,1,.627.961l3.315,0a1.455,1.455,0,0,1,.573-.912l-2.03-4.085a1.5,1.5,0,0,1-.4.062A1.364,1.364,0,0,1,20.395,15.78ZM7.531,15.759h0L5.5,19.844a1.462,1.462,0,0,1,.572.911H9.593a1.448,1.448,0,0,1,.594-.927L8.3,15.77a1.442,1.442,0,0,1-.366.051,1.523,1.523,0,0,1-.4-.062ZM19.274,14.62l-3.4,0a1.457,1.457,0,0,1-.547.886l2.08,4.109a1.483,1.483,0,0,1,.415-.066,1.444,1.444,0,0,1,.336.04l1.75-4.018A1.451,1.451,0,0,1,19.274,14.62Zm-8.231,4.933a1.4,1.4,0,0,1,.387.058l2.037-4.144a1.459,1.459,0,0,1-.5-.845H9.385a1.471,1.471,0,0,1-.6.932L10.67,19.6A1.484,1.484,0,0,1,11.043,19.552ZM10.755,9.267,8.812,13.181a1.459,1.459,0,0,1,.573.91h3.584a1.443,1.443,0,0,1,.58-.914l-1.98-3.914a1.465,1.465,0,0,1-.413.064A1.426,1.426,0,0,1,10.755,9.267Zm6.352,0h0l-1.894,3.854a1.46,1.46,0,0,1,.658.968h3.4a1.447,1.447,0,0,1,.573-.91L17.9,9.267a1.477,1.477,0,0,1-.4.061,1.535,1.535,0,0,1-.4-.059Zm-4.5-1.143a1.458,1.458,0,0,1-.562.9l1.984,3.92a1.412,1.412,0,0,1,.392-.059,1.483,1.483,0,0,1,.3.03l1.909-3.881a1.459,1.459,0,0,1-.575-.913Zm1.327-5.255-1.9,3.819a1.462,1.462,0,0,1,.571.908h3.445a1.455,1.455,0,0,1,.572-.908l-1.9-3.819a1.507,1.507,0,0,1-.4.06A1.412,1.412,0,0,1,13.934,2.871Z" transform="translate(0.037 0.605)" fill="none"/>
      <g id="Group_9-2" data-name="Group 9" clip-path="url(#clip-path)">
        <path id="Fill_7" data-name="Fill 7" d="M0,38.421H145.323V0H0Z" transform="translate(0.037 -4.136)" fill="url(#linear-gradient)"/>
      </g>
    </g>
    <path id="Fill_10" data-name="Fill 10" d="M.906,4H0V0H2.56a2.062,2.062,0,0,1,.517.065,1.365,1.365,0,0,1,.464.211,1.107,1.107,0,0,1,.33.38A1.153,1.153,0,0,1,4,1.2a1.288,1.288,0,0,1-.113.563,1.13,1.13,0,0,1-.276.374,1.093,1.093,0,0,1-.356.214c-.036.012-.073.024-.114.036L4,4H2.974L2.159,2.453H.906V4Zm0-3.174v.8H2.56a.625.625,0,0,0,.4-.11A.38.38,0,0,0,3.087,1.2a.387.387,0,0,0-.04-.191.3.3,0,0,0-.1-.108A.484.484,0,0,0,2.777.846,1.185,1.185,0,0,0,2.56.826Z" transform="translate(141 11)" fill="#1a1919"/>
    <path id="Fill_11" data-name="Fill 11" d="M4,8A4,4,0,1,1,8,4,4.005,4.005,0,0,1,4,8ZM4,.632A3.368,3.368,0,1,0,7.368,4,3.372,3.372,0,0,0,4,.632Z" transform="translate(139 9)" fill="#1a1919"/>
  </g>
</svg>
