<svg id="visual" viewBox="0 0 900 600" width="900" height="600" xmlns="http://www.w3.org/2000/svg" xmlns:xlink="http://www.w3.org/1999/xlink" version="1.1"><rect x="0" y="0" width="900" height="600" fill="#fff"></rect><defs><linearGradient id="grad1_0" x1="33.3%" y1="0%" x2="100%" y2="100%"><stop offset="20%" stop-color="#9985e5" stop-opacity="1"></stop><stop offset="80%" stop-color="#9985e5" stop-opacity="1"></stop></linearGradient></defs><defs><linearGradient id="grad1_1" x1="33.3%" y1="0%" x2="100%" y2="100%"><stop offset="20%" stop-color="#9985e5" stop-opacity="1"></stop><stop offset="80%" stop-color="#cec1f3" stop-opacity="1"></stop></linearGradient></defs><defs><linearGradient id="grad1_2" x1="33.3%" y1="0%" x2="100%" y2="100%"><stop offset="20%" stop-color="#ffffff" stop-opacity="1"></stop><stop offset="80%" stop-color="#cec1f3" stop-opacity="1"></stop></linearGradient></defs><defs><linearGradient id="grad2_0" x1="0%" y1="0%" x2="66.7%" y2="100%"><stop offset="20%" stop-color="#9985e5" stop-opacity="1"></stop><stop offset="80%" stop-color="#9985e5" stop-opacity="1"></stop></linearGradient></defs><defs><linearGradient id="grad2_1" x1="0%" y1="0%" x2="66.7%" y2="100%"><stop offset="20%" stop-color="#cec1f3" stop-opacity="1"></stop><stop offset="80%" stop-color="#9985e5" stop-opacity="1"></stop></linearGradient></defs><defs><linearGradient id="grad2_2" x1="0%" y1="0%" x2="66.7%" y2="100%"><stop offset="20%" stop-color="#cec1f3" stop-opacity="1"></stop><stop offset="80%" stop-color="#ffffff" stop-opacity="1"></stop></linearGradient></defs><g transform="translate(900, 0)"><path d="M0 432.7C-50.3 435.6 -100.7 438.4 -133.7 411.5C-166.7 384.5 -182.4 327.7 -216.3 297.7C-250.2 267.7 -302.4 264.5 -327.7 238.1C-352.9 211.6 -351.2 161.9 -364.3 118.4C-377.3 74.8 -405 37.4 -432.7 0L0 0Z" fill="#e7dff9"></path><path d="M0 288.4C-33.6 290.4 -67.1 292.3 -89.1 274.3C-111.1 256.4 -121.6 218.5 -144.2 198.5C-166.8 178.5 -201.6 176.3 -218.4 158.7C-235.3 141.1 -234.2 107.9 -242.8 78.9C-251.5 49.9 -270 24.9 -288.4 0L0 0Z" fill="#b4a2ec"></path><path d="M0 144.2C-16.8 145.2 -33.6 146.1 -44.6 137.2C-55.6 128.2 -60.8 109.2 -72.1 99.2C-83.4 89.2 -100.8 88.2 -109.2 79.4C-117.6 70.5 -117.1 54 -121.4 39.5C-125.8 24.9 -135 12.5 -144.2 0L0 0Z" fill="#9985e5"></path></g><g transform="translate(0, 600)"><path d="M0 -432.7C40.4 -414.5 80.7 -396.3 125.5 -386.1C170.2 -376 219.3 -373.9 254.3 -350C289.3 -326.2 310.2 -280.6 330.9 -240.4C351.6 -200.2 372.1 -165.5 389 -126.4C405.9 -87.2 419.3 -43.6 432.7 0L0 0Z" fill="#e7dff9"></path><path d="M0 -288.4C26.9 -276.3 53.8 -264.2 83.6 -257.4C113.5 -250.7 146.2 -249.3 169.5 -233.4C192.9 -217.5 206.8 -187 220.6 -160.3C234.4 -133.5 248 -110.4 259.3 -84.3C270.6 -58.2 279.5 -29.1 288.4 0L0 0Z" fill="#b4a2ec"></path><path d="M0 -144.2C13.5 -138.2 26.9 -132.1 41.8 -128.7C56.7 -125.3 73.1 -124.6 84.8 -116.7C96.4 -108.7 103.4 -93.5 110.3 -80.1C117.2 -66.7 124 -55.2 129.7 -42.1C135.3 -29.1 139.8 -14.5 144.2 0L0 0Z" fill="#9985e5"></path></g></svg>