<svg id="visual" viewBox="0 0 900 600" width="900" height="600" xmlns="http://www.w3.org/2000/svg" xmlns:xlink="http://www.w3.org/1999/xlink" version="1.1"><rect x="0" y="0" width="900" height="600" fill="#e8eef3"></rect><defs><linearGradient id="grad1_0" x1="33.3%" y1="0%" x2="100%" y2="100%"><stop offset="20%" stop-color="#e8eef3" stop-opacity="1"></stop><stop offset="80%" stop-color="#e8eef3" stop-opacity="1"></stop></linearGradient></defs><defs><linearGradient id="grad2_0" x1="0%" y1="0%" x2="66.7%" y2="100%"><stop offset="20%" stop-color="#e8eef3" stop-opacity="1"></stop><stop offset="80%" stop-color="#e8eef3" stop-opacity="1"></stop></linearGradient></defs><g transform="translate(900, 0)"><path d="M0 486.7C-57.7 468.4 -115.3 450 -178.3 430.5C-241.3 411 -309.7 390.4 -344.2 344.2C-378.6 298 -379.2 226.2 -397.3 164.6C-415.4 102.9 -451.1 51.5 -486.7 0L0 0Z" fill="#89cbeb"></path></g><g transform="translate(0, 600)"><path d="M0 -486.7C58.6 -472.5 117.3 -458.2 181.8 -438.8C246.3 -419.5 316.6 -395 344.2 -344.2C371.8 -293.4 356.6 -216.3 373.2 -154.6C389.9 -92.9 438.3 -46.4 486.7 0L0 0Z" fill="#89cbeb"></path></g></svg>