<svg id="visual" viewBox="0 0 900 600" width="900" height="600" xmlns="http://www.w3.org/2000/svg" xmlns:xlink="http://www.w3.org/1999/xlink" version="1.1"><rect x="0" y="0" width="900" height="600" fill="#e8eef3"></rect><defs><linearGradient id="grad1_0" x1="33.3%" y1="0%" x2="100%" y2="100%"><stop offset="20%" stop-color="#89cbeb" stop-opacity="1"></stop><stop offset="80%" stop-color="#89cbeb" stop-opacity="1"></stop></linearGradient></defs><defs><linearGradient id="grad1_1" x1="33.3%" y1="0%" x2="100%" y2="100%"><stop offset="20%" stop-color="#89cbeb" stop-opacity="1"></stop><stop offset="80%" stop-color="#bddcf0" stop-opacity="1"></stop></linearGradient></defs><defs><linearGradient id="grad1_2" x1="33.3%" y1="0%" x2="100%" y2="100%"><stop offset="20%" stop-color="#e8eef3" stop-opacity="1"></stop><stop offset="80%" stop-color="#bddcf0" stop-opacity="1"></stop></linearGradient></defs><defs><linearGradient id="grad2_0" x1="0%" y1="0%" x2="66.7%" y2="100%"><stop offset="20%" stop-color="#89cbeb" stop-opacity="1"></stop><stop offset="80%" stop-color="#89cbeb" stop-opacity="1"></stop></linearGradient></defs><defs><linearGradient id="grad2_1" x1="0%" y1="0%" x2="66.7%" y2="100%"><stop offset="20%" stop-color="#bddcf0" stop-opacity="1"></stop><stop offset="80%" stop-color="#89cbeb" stop-opacity="1"></stop></linearGradient></defs><defs><linearGradient id="grad2_2" x1="0%" y1="0%" x2="66.7%" y2="100%"><stop offset="20%" stop-color="#bddcf0" stop-opacity="1"></stop><stop offset="80%" stop-color="#e8eef3" stop-opacity="1"></stop></linearGradient></defs><g transform="translate(900, 0)"><path d="M0 432.7C-77.4 422.4 -154.8 412.1 -216.3 374.7C-277.8 337.3 -323.4 273 -356.8 206C-390.2 139 -411.4 69.5 -432.7 0L0 0Z" fill="#d3e5f2"></path><path d="M0 288.4C-51.6 281.6 -103.2 274.7 -144.2 249.8C-185.2 224.9 -215.6 182 -237.9 137.3C-260.1 92.7 -274.3 46.3 -288.4 0L0 0Z" fill="#a4d3ee"></path><path d="M0 144.2C-25.8 140.8 -51.6 137.4 -72.1 124.9C-92.6 112.4 -107.8 91 -118.9 68.7C-130.1 46.3 -137.1 23.2 -144.2 0L0 0Z" fill="#89cbeb"></path></g><g transform="translate(0, 600)"><path d="M0 -432.7C69.5 -411.4 139 -390.2 206 -356.8C273 -323.4 337.3 -277.8 374.7 -216.3C412.1 -154.8 422.4 -77.4 432.7 0L0 0Z" fill="#d3e5f2"></path><path d="M0 -288.4C46.3 -274.3 92.7 -260.1 137.3 -237.9C182 -215.6 224.9 -185.2 249.8 -144.2C274.7 -103.2 281.6 -51.6 288.4 0L0 0Z" fill="#a4d3ee"></path><path d="M0 -144.2C23.2 -137.1 46.3 -130.1 68.7 -118.9C91 -107.8 112.4 -92.6 124.9 -72.1C137.4 -51.6 140.8 -25.8 144.2 0L0 0Z" fill="#89cbeb"></path></g></svg>