<svg id="visual" viewBox="0 0 900 600" width="900" height="600" xmlns="http://www.w3.org/2000/svg" xmlns:xlink="http://www.w3.org/1999/xlink" version="1.1"><rect x="0" y="0" width="900" height="600" fill="#fdfcff"></rect><defs><linearGradient id="grad1_0" x1="33.3%" y1="0%" x2="100%" y2="100%"><stop offset="20%" stop-color="#4c4c4f" stop-opacity="1"></stop><stop offset="80%" stop-color="#4c4c4f" stop-opacity="1"></stop></linearGradient></defs><defs><linearGradient id="grad1_1" x1="33.3%" y1="0%" x2="100%" y2="100%"><stop offset="20%" stop-color="#4c4c4f" stop-opacity="1"></stop><stop offset="80%" stop-color="#838286" stop-opacity="1"></stop></linearGradient></defs><defs><linearGradient id="grad1_2" x1="33.3%" y1="0%" x2="100%" y2="100%"><stop offset="20%" stop-color="#bebdc0" stop-opacity="1"></stop><stop offset="80%" stop-color="#838286" stop-opacity="1"></stop></linearGradient></defs><defs><linearGradient id="grad1_3" x1="33.3%" y1="0%" x2="100%" y2="100%"><stop offset="20%" stop-color="#bebdc0" stop-opacity="1"></stop><stop offset="80%" stop-color="#fdfcff" stop-opacity="1"></stop></linearGradient></defs><defs><linearGradient id="grad2_0" x1="0%" y1="0%" x2="66.7%" y2="100%"><stop offset="20%" stop-color="#4c4c4f" stop-opacity="1"></stop><stop offset="80%" stop-color="#4c4c4f" stop-opacity="1"></stop></linearGradient></defs><defs><linearGradient id="grad2_1" x1="0%" y1="0%" x2="66.7%" y2="100%"><stop offset="20%" stop-color="#838286" stop-opacity="1"></stop><stop offset="80%" stop-color="#4c4c4f" stop-opacity="1"></stop></linearGradient></defs><defs><linearGradient id="grad2_2" x1="0%" y1="0%" x2="66.7%" y2="100%"><stop offset="20%" stop-color="#838286" stop-opacity="1"></stop><stop offset="80%" stop-color="#bebdc0" stop-opacity="1"></stop></linearGradient></defs><defs><linearGradient id="grad2_3" x1="0%" y1="0%" x2="66.7%" y2="100%"><stop offset="20%" stop-color="#fdfcff" stop-opacity="1"></stop><stop offset="80%" stop-color="#bebdc0" stop-opacity="1"></stop></linearGradient></defs><g transform="translate(900, 0)"><path d="M0 324.5C-29.2 309.2 -58.5 293.8 -93.3 287.2C-128.2 280.6 -168.6 282.7 -190.7 262.5C-212.9 242.4 -216.8 200 -234.6 170.5C-252.4 140.9 -284.2 124.2 -301.5 98C-318.8 71.7 -321.6 35.8 -324.5 0L0 0Z" fill="#dddcdf"></path><path d="M0 243.4C-21.9 231.9 -43.9 220.4 -70 215.4C-96.1 210.4 -126.4 212 -143.1 196.9C-159.7 181.8 -162.6 150 -176 127.8C-189.3 105.7 -213.1 93.2 -226.1 73.5C-239.1 53.8 -241.2 26.9 -243.4 0L0 0Z" fill="#a09fa2"></path><path d="M0 162.2C-14.6 154.6 -29.2 146.9 -46.7 143.6C-64.1 140.3 -84.3 141.3 -95.4 131.3C-106.4 121.2 -108.4 100 -117.3 85.2C-126.2 70.5 -142.1 62.1 -150.7 49C-159.4 35.8 -160.8 17.9 -162.2 0L0 0Z" fill="#67676a"></path><path d="M0 81.1C-7.3 77.3 -14.6 73.5 -23.3 71.8C-32 70.1 -42.1 70.7 -47.7 65.6C-53.2 60.6 -54.2 50 -58.7 42.6C-63.1 35.2 -71 31.1 -75.4 24.5C-79.7 17.9 -80.4 9 -81.1 0L0 0Z" fill="#4c4c4f"></path></g><g transform="translate(0, 600)"><path d="M0 -324.5C36.8 -325.5 73.5 -326.4 100.3 -308.6C127 -290.8 143.8 -254.3 167.5 -230.6C191.2 -206.9 221.9 -196.1 240.3 -174.6C258.7 -153.1 264.8 -120.8 276.8 -89.9C288.7 -59 306.6 -29.5 324.5 0L0 0Z" fill="#dddcdf"></path><path d="M0 -243.4C27.6 -244.1 55.1 -244.8 75.2 -231.5C95.3 -218.1 107.9 -190.7 125.6 -172.9C143.4 -155.2 166.4 -147.1 180.2 -130.9C194 -114.8 198.6 -90.6 207.6 -67.4C216.6 -44.3 230 -22.1 243.4 0L0 0Z" fill="#a09fa2"></path><path d="M0 -162.2C18.4 -162.7 36.8 -163.2 50.1 -154.3C63.5 -145.4 71.9 -127.1 83.8 -115.3C95.6 -103.4 110.9 -98 120.1 -87.3C129.3 -76.5 132.4 -60.4 138.4 -45C144.4 -29.5 153.3 -14.8 162.2 0L0 0Z" fill="#67676a"></path><path d="M0 -81.1C9.2 -81.4 18.4 -81.6 25.1 -77.2C31.8 -72.7 36 -63.6 41.9 -57.6C47.8 -51.7 55.5 -49 60.1 -43.6C64.7 -38.3 66.2 -30.2 69.2 -22.5C72.2 -14.8 76.7 -7.4 81.1 0L0 0Z" fill="#4c4c4f"></path></g></svg>