<svg id="visual" viewBox="0 0 900 600" width="900" height="600" xmlns="http://www.w3.org/2000/svg" xmlns:xlink="http://www.w3.org/1999/xlink" version="1.1"><rect x="0" y="0" width="900" height="600" fill="#fdfcff"></rect><defs><linearGradient id="grad1_0" x1="33.3%" y1="0%" x2="100%" y2="100%"><stop offset="20%" stop-color="#9985e5" stop-opacity="1"></stop><stop offset="80%" stop-color="#9985e5" stop-opacity="1"></stop></linearGradient></defs><defs><linearGradient id="grad1_1" x1="33.3%" y1="0%" x2="100%" y2="100%"><stop offset="20%" stop-color="#9985e5" stop-opacity="1"></stop><stop offset="80%" stop-color="#bdabee" stop-opacity="1"></stop></linearGradient></defs><defs><linearGradient id="grad1_2" x1="33.3%" y1="0%" x2="100%" y2="100%"><stop offset="20%" stop-color="#ded3f7" stop-opacity="1"></stop><stop offset="80%" stop-color="#bdabee" stop-opacity="1"></stop></linearGradient></defs><defs><linearGradient id="grad1_3" x1="33.3%" y1="0%" x2="100%" y2="100%"><stop offset="20%" stop-color="#ded3f7" stop-opacity="1"></stop><stop offset="80%" stop-color="#fdfcff" stop-opacity="1"></stop></linearGradient></defs><defs><linearGradient id="grad2_0" x1="0%" y1="0%" x2="66.7%" y2="100%"><stop offset="20%" stop-color="#9985e5" stop-opacity="1"></stop><stop offset="80%" stop-color="#9985e5" stop-opacity="1"></stop></linearGradient></defs><defs><linearGradient id="grad2_1" x1="0%" y1="0%" x2="66.7%" y2="100%"><stop offset="20%" stop-color="#bdabee" stop-opacity="1"></stop><stop offset="80%" stop-color="#9985e5" stop-opacity="1"></stop></linearGradient></defs><defs><linearGradient id="grad2_2" x1="0%" y1="0%" x2="66.7%" y2="100%"><stop offset="20%" stop-color="#bdabee" stop-opacity="1"></stop><stop offset="80%" stop-color="#ded3f7" stop-opacity="1"></stop></linearGradient></defs><defs><linearGradient id="grad2_3" x1="0%" y1="0%" x2="66.7%" y2="100%"><stop offset="20%" stop-color="#fdfcff" stop-opacity="1"></stop><stop offset="80%" stop-color="#ded3f7" stop-opacity="1"></stop></linearGradient></defs><g transform="translate(900, 0)"><path d="M0 324.5C-32.9 316.6 -65.8 308.6 -97 298.6C-128.3 288.6 -157.8 276.5 -188.7 259.7C-219.6 242.9 -251.8 221.3 -262.5 190.7C-273.2 160.2 -262.4 120.7 -269.1 87.5C-275.9 54.2 -300.2 27.1 -324.5 0L0 0Z" fill="#eee7fb"></path><path d="M0 243.4C-24.7 237.4 -49.4 231.5 -72.8 224C-96.2 216.5 -118.3 207.4 -141.5 194.8C-164.7 182.1 -188.9 166 -196.9 143.1C-204.9 120.2 -196.8 90.5 -201.9 65.6C-206.9 40.6 -225.1 20.3 -243.4 0L0 0Z" fill="#cebff2"></path><path d="M0 162.2C-16.5 158.3 -32.9 154.3 -48.5 149.3C-64.1 144.3 -78.9 138.3 -94.3 129.8C-109.8 121.4 -125.9 110.6 -131.3 95.4C-136.6 80.1 -131.2 60.4 -134.6 43.7C-137.9 27.1 -150.1 13.5 -162.2 0L0 0Z" fill="#ab98ea"></path><path d="M0 81.1C-8.2 79.1 -16.5 77.2 -24.3 74.7C-32.1 72.2 -39.4 69.1 -47.2 64.9C-54.9 60.7 -63 55.3 -65.6 47.7C-68.3 40.1 -65.6 30.2 -67.3 21.9C-69 13.5 -75 6.8 -81.1 0L0 0Z" fill="#9985e5"></path></g><g transform="translate(0, 600)"><path d="M0 -324.5C34.9 -316.4 69.7 -308.2 93.9 -289.1C118.2 -270 131.7 -239.9 164 -225.7C196.3 -211.6 247.3 -213.4 262.5 -190.7C277.8 -168.1 257.2 -120.9 261.5 -85C265.9 -49.1 295.2 -24.6 324.5 0L0 0Z" fill="#eee7fb"></path><path d="M0 -243.4C26.1 -237.3 52.3 -231.2 70.5 -216.8C88.6 -202.5 98.8 -179.9 123 -169.3C147.2 -158.7 185.5 -160.1 196.9 -143.1C208.3 -126 192.9 -90.6 196.2 -63.7C199.4 -36.8 221.4 -18.4 243.4 0L0 0Z" fill="#cebff2"></path><path d="M0 -162.2C17.4 -158.2 34.9 -154.1 47 -144.6C59.1 -135 65.9 -119.9 82 -112.9C98.1 -105.8 123.7 -106.7 131.3 -95.4C138.9 -84 128.6 -60.4 130.8 -42.5C133 -24.6 147.6 -12.3 162.2 0L0 0Z" fill="#ab98ea"></path><path d="M0 -81.1C8.7 -79.1 17.4 -77.1 23.5 -72.3C29.5 -67.5 32.9 -60 41 -56.4C49.1 -52.9 61.8 -53.4 65.6 -47.7C69.4 -42 64.3 -30.2 65.4 -21.2C66.5 -12.3 73.8 -6.1 81.1 0L0 0Z" fill="#9985e5"></path></g></svg>