<svg id="visual" viewBox="0 0 900 600" width="900" height="600" xmlns="http://www.w3.org/2000/svg" xmlns:xlink="http://www.w3.org/1999/xlink" version="1.1"><rect x="0" y="0" width="900" height="600" fill="#fff"></rect><defs><linearGradient id="grad1_0" x1="33.3%" y1="0%" x2="100%" y2="100%"><stop offset="20%" stop-color="#89cbeb" stop-opacity="1"></stop><stop offset="80%" stop-color="#89cbeb" stop-opacity="1"></stop></linearGradient></defs><defs><linearGradient id="grad1_1" x1="33.3%" y1="0%" x2="100%" y2="100%"><stop offset="20%" stop-color="#89cbeb" stop-opacity="1"></stop><stop offset="80%" stop-color="#b3dcf2" stop-opacity="1"></stop></linearGradient></defs><defs><linearGradient id="grad1_2" x1="33.3%" y1="0%" x2="100%" y2="100%"><stop offset="20%" stop-color="#daedf8" stop-opacity="1"></stop><stop offset="80%" stop-color="#b3dcf2" stop-opacity="1"></stop></linearGradient></defs><defs><linearGradient id="grad1_3" x1="33.3%" y1="0%" x2="100%" y2="100%"><stop offset="20%" stop-color="#daedf8" stop-opacity="1"></stop><stop offset="80%" stop-color="#ffffff" stop-opacity="1"></stop></linearGradient></defs><defs><linearGradient id="grad2_0" x1="0%" y1="0%" x2="66.7%" y2="100%"><stop offset="20%" stop-color="#89cbeb" stop-opacity="1"></stop><stop offset="80%" stop-color="#89cbeb" stop-opacity="1"></stop></linearGradient></defs><defs><linearGradient id="grad2_1" x1="0%" y1="0%" x2="66.7%" y2="100%"><stop offset="20%" stop-color="#b3dcf2" stop-opacity="1"></stop><stop offset="80%" stop-color="#89cbeb" stop-opacity="1"></stop></linearGradient></defs><defs><linearGradient id="grad2_2" x1="0%" y1="0%" x2="66.7%" y2="100%"><stop offset="20%" stop-color="#b3dcf2" stop-opacity="1"></stop><stop offset="80%" stop-color="#daedf8" stop-opacity="1"></stop></linearGradient></defs><defs><linearGradient id="grad2_3" x1="0%" y1="0%" x2="66.7%" y2="100%"><stop offset="20%" stop-color="#ffffff" stop-opacity="1"></stop><stop offset="80%" stop-color="#daedf8" stop-opacity="1"></stop></linearGradient></defs><g transform="translate(900, 0)"><path d="M0 297.5C-52.1 289.7 -104.2 282 -148.7 257.6C-193.3 233.2 -230.2 192.2 -253.7 146.5C-277.3 100.8 -287.4 50.4 -297.5 0L0 0Z" fill="#edf6fc"></path><path d="M0 223.1C-39.1 217.3 -78.1 211.5 -111.5 193.2C-144.9 174.9 -172.7 144.2 -190.3 109.9C-208 75.6 -215.5 37.8 -223.1 0L0 0Z" fill="#c7e5f5"></path><path d="M0 148.7C-26 144.9 -52.1 141 -74.4 128.8C-96.6 116.6 -115.1 96.1 -126.9 73.3C-138.6 50.4 -143.7 25.2 -148.7 0L0 0Z" fill="#9fd4ee"></path><path d="M0 74.4C-13 72.4 -26 70.5 -37.2 64.4C-48.3 58.3 -57.6 48.1 -63.4 36.6C-69.3 25.2 -71.8 12.6 -74.4 0L0 0Z" fill="#89cbeb"></path></g><g transform="translate(0, 600)"><path d="M0 -297.5C52.9 -290.2 105.8 -282.9 148.7 -257.6C191.6 -232.3 224.6 -188.9 247.7 -143C270.8 -97.1 284.1 -48.5 297.5 0L0 0Z" fill="#edf6fc"></path><path d="M0 -223.1C39.7 -217.6 79.4 -212.2 111.5 -193.2C143.7 -174.2 168.4 -141.7 185.8 -107.3C203.1 -72.8 213.1 -36.4 223.1 0L0 0Z" fill="#c7e5f5"></path><path d="M0 -148.7C26.5 -145.1 52.9 -141.5 74.4 -128.8C95.8 -116.1 112.3 -94.5 123.8 -71.5C135.4 -48.5 142.1 -24.3 148.7 0L0 0Z" fill="#9fd4ee"></path><path d="M0 -74.4C13.2 -72.5 26.5 -70.7 37.2 -64.4C47.9 -58.1 56.1 -47.2 61.9 -35.8C67.7 -24.3 71 -12.1 74.4 0L0 0Z" fill="#89cbeb"></path></g></svg>